<?xml version="1.0" encoding="UTF-8"?>
<svg width="512" height="512" viewBox="0 0 512 512" xmlns="http://www.w3.org/2000/svg">
    <defs>
        <linearGradient id="grad" x1="0%" y1="0%" x2="100%" y2="100%">
            <stop offset="0%" style="stop-color:#00a0d2;stop-opacity:1" />
            <stop offset="100%" style="stop-color:#00704a;stop-opacity:1" />
        </linearGradient>
    </defs>
    <rect width="512" height="512" rx="128" fill="url(#grad)"/>
    <path d="M318.1 192.1c-14.5-24.5-41.2-39.1-69.8-39.1-46.7 0-84.7 38-84.7 84.7 0 16.8 4.9 32.4 13.3 45.5M243.9 319.9c46.7 0 84.7-38 84.7-84.7 0-16.8-4.9-32.4-13.3-45.5" 
          fill="none" stroke="#ffffff" stroke-width="32" stroke-linecap="round"/>
    <path d="M318.1 192.1c-14.5-24.5-41.2-39.1-69.8-39.1-46.7 0-84.7 38-84.7 84.7 0 16.8 4.9 32.4 13.3 45.5M243.9 319.9c46.7 0 84.7-38 84.7-84.7 0-16.8-4.9-32.4-13.3-45.5" 
          fill="none" stroke="#fad201" stroke-width="16" stroke-linecap="round"/>
</svg> 